<svg xmlns="http://www.w3.org/2000/svg" viewBox="0 0 128 128" role="img" aria-label="CoinGecko"><circle cx="64" cy="64" r="62" fill="#7bdc24"/><circle cx="64" cy="64" r="44" fill="#fff178"/><path d="M33 75c9-24 30-40 59-35 18 3 25 17 22 31-4 17-20 30-43 29-18-1-32-9-38-25z" fill="#33b43a"/><path d="M46 75c13 7 28 7 45 3 9-2 14-6 18-10-1 17-18 30-40 29-11-1-20-7-23-22z" fill="#249b31" opacity=".95"/><circle cx="73" cy="48" r="10" fill="#fff"/><circle cx="76" cy="49" r="5" fill="#111"/><circle cx="78" cy="45" r="2.2" fill="#fff"/></svg>