<svg id="comp-lfvfncg9-top" preserveAspectRatio="xMidYMax slice" viewBox="0 0 1920 80" height="100%" width="100%" xmlns="http://www.w3.org/2000/svg" data-type="shape">
  <defs>
    <style>
      #comp-lfvfncg9-top { fill: #FFFFFF; }
    </style>
  </defs>
  <g>
    <path d="M 0.0 30.0 L 20.0 30.8 L 40.0 28.8 L 60.0 32.4 L 80.0 35.2 L 100.0 34.0 L 120.0 32.8 L 140.0 32.2 L 160.0 32.3 L 180.0 30.6 L 200.0 25.6 L 220.0 24.9 L 240.0 24.9 L 260.0 23.4 L 280.0 19.4 L 300.0 21.9 L 320.0 23.7 L 340.0 20.7 L 360.0 24.9 L 380.0 28.2 L 400.0 27.9 L 420.0 30.1 L 440.0 31.8 L 460.0 36.1 L 480.0 32.7 L 500.0 29.6 L 520.0 31.8 L 540.0 34.6 L 560.0 29.2 L 580.0 27.4 L 600.0 29.0 L 620.0 27.3 L 640.0 19.6 L 660.0 21.9 L 680.0 23.4 L 700.0 24.8 L 720.0 21.2 L 740.0 23.0 L 760.0 26.1 L 780.0 27.4 L 800.0 28.4 L 820.0 31.9 L 840.0 34.9 L 860.0 31.3 L 880.0 32.9 L 900.0 37.3 L 920.0 33.6 L 940.0 29.0 L 960.0 28.0 L 980.0 28.9 L 1000.0 23.7 L 1020.0 23.5 L 1040.0 25.2 L 1060.0 25.5 L 1080.0 19.2 L 1100.0 20.2 L 1120.0 26.8 L 1140.0 26.5 L 1160.0 25.5 L 1180.0 25.6 L 1200.0 31.1 L 1220.0 33.8 L 1240.0 28.4 L 1260.0 33.2 L 1280.0 36.8 L 1300.0 31.6 L 1320.0 30.9 L 1340.0 31.1 L 1360.0 31.7 L 1380.0 25.1 L 1400.0 25.8 L 1420.0 28.1 L 1440.0 24.1 L 1460.0 21.3 L 1480.0 20.6 L 1500.0 25.1 L 1520.0 23.3 L 1540.0 24.2 L 1560.0 26.3 L 1580.0 30.5 L 1600.0 28.2 L 1620.0 30.9 L 1640.0 35.8 L 1660.0 32.5 L 1680.0 33.1 L 1700.0 33.3 L 1720.0 36.4 L 1740.0 30.5 L 1760.0 25.5 L 1780.0 29.0 L 1800.0 27.9 L 1820.0 21.7 L 1840.0 18.9 L 1860.0 23.6 L 1880.0 22.0 L 1900.0 21.5 L 1920.0 30.0 L 1920.0 58.0 L 1900.0 52.0 L 1880.0 56.5 L 1860.0 59.5 L 1840.0 58.2 L 1820.0 57.3 L 1800.0 57.8 L 1780.0 59.3 L 1760.0 62.8 L 1740.0 59.8 L 1720.0 55.3 L 1700.0 57.0 L 1680.0 58.2 L 1660.0 58.9 L 1640.0 55.1 L 1620.0 52.2 L 1600.0 49.4 L 1580.0 52.4 L 1560.0 50.3 L 1540.0 48.1 L 1520.0 46.8 L 1500.0 49.7 L 1480.0 52.4 L 1460.0 54.8 L 1440.0 54.9 L 1420.0 53.3 L 1400.0 57.5 L 1380.0 61.6 L 1360.0 58.7 L 1340.0 58.7 L 1320.0 56.8 L 1300.0 58.7 L 1280.0 62.5 L 1260.0 57.5 L 1240.0 52.6 L 1220.0 53.8 L 1200.0 56.1 L 1180.0 55.8 L 1160.0 50.0 L 1140.0 47.1 L 1120.0 48.5 L 1100.0 51.0 L 1080.0 54.3 L 1060.0 50.8 L 1040.0 49.7 L 1020.0 53.4 L 1000.0 58.3 L 980.0 59.6 L 960.0 57.9 L 940.0 56.5 L 920.0 58.4 L 900.0 61.2 L 880.0 59.1 L 860.0 60.0 L 840.0 56.2 L 820.0 58.7 L 800.0 56.0 L 780.0 55.4 L 760.0 50.8 L 740.0 50.4 L 720.0 53.2 L 700.0 50.6 L 680.0 52.4 L 660.0 47.1 L 640.0 49.8 L 620.0 54.8 L 600.0 53.8 L 580.0 52.9 L 560.0 53.7 L 540.0 58.0 L 520.0 58.2 L 500.0 61.3 L 480.0 57.5 L 460.0 59.6 L 440.0 57.5 L 420.0 59.0 L 400.0 59.1 L 380.0 55.7 L 360.0 51.4 L 340.0 55.1 L 320.0 55.5 L 300.0 51.4 L 280.0 47.6 L 260.0 49.1 L 240.0 49.4 L 220.0 53.4 L 200.0 53.2 L 180.0 52.5 L 160.0 50.4 L 140.0 54.3 L 120.0 58.3 L 100.0 57.7 L 80.0 57.6 L 60.0 56.6 L 40.0 61.0 L 20.0 63.3 L 0.0 58.0 Z"/>
    <rect x="1146.2" y="33.4" width="29.7" height="1.3" fill="#FFFFFF" opacity="0.38" transform="rotate(-1.87 1146.2 33.4)"/>
<rect x="1167.6" y="28.2" width="10.1" height="1.2" fill="#FFFFFF" opacity="0.54" transform="rotate(0.21 1167.6 28.2)"/>
<rect x="49.9" y="35.3" width="18.7" height="1.7" fill="#FFFFFF" opacity="0.35" transform="rotate(2.72 49.9 35.3)"/>
<rect x="1133.3" y="37.7" width="39.6" height="1.8" fill="#FFFFFF" opacity="0.39" transform="rotate(-0.91 1133.3 37.7)"/>
<rect x="444.1" y="35.4" width="14.1" height="1.1" fill="#FFFFFF" opacity="0.39" transform="rotate(-2.28 444.1 35.4)"/>
<rect x="1801.2" y="37.7" width="19.9" height="1.7" fill="#FFFFFF" opacity="0.54" transform="rotate(0.13 1801.2 37.7)"/>
<rect x="709.4" y="33.6" width="15.6" height="1.1" fill="#FFFFFF" opacity="0.56" transform="rotate(-1.82 709.4 33.6)"/>
<rect x="843.4" y="37.3" width="8.7" height="0.9" fill="#FFFFFF" opacity="0.67" transform="rotate(-2.65 843.4 37.3)"/>
<rect x="482.4" y="36.2" width="27.4" height="1.1" fill="#FFFFFF" opacity="0.37" transform="rotate(-1.35 482.4 36.2)"/>
<rect x="576.3" y="35.6" width="39.2" height="1.7" fill="#FFFFFF" opacity="0.71" transform="rotate(2.58 576.3 35.6)"/>
<rect x="1683.0" y="37.0" width="39.0" height="0.9" fill="#FFFFFF" opacity="0.48" transform="rotate(-1.52 1683.0 37.0)"/>
<rect x="1160.0" y="31.9" width="19.1" height="1.8" fill="#FFFFFF" opacity="0.51" transform="rotate(-1.75 1160.0 31.9)"/>
<rect x="530.7" y="31.5" width="27.5" height="1.5" fill="#FFFFFF" opacity="0.53" transform="rotate(-1.88 530.7 31.5)"/>
<rect x="772.2" y="29.9" width="13.5" height="1.5" fill="#FFFFFF" opacity="0.43" transform="rotate(1.27 772.2 29.9)"/>
<rect x="1264.8" y="27.7" width="28.0" height="1.2" fill="#FFFFFF" opacity="0.53" transform="rotate(0.64 1264.8 27.7)"/>
<rect x="1462.3" y="36.6" width="31.5" height="1.1" fill="#FFFFFF" opacity="0.57" transform="rotate(-0.99 1462.3 36.6)"/>
<rect x="36.7" y="32.6" width="23.1" height="1.8" fill="#FFFFFF" opacity="0.48" transform="rotate(2.00 36.7 32.6)"/>
<rect x="987.2" y="27.2" width="30.9" height="1.1" fill="#FFFFFF" opacity="0.56" transform="rotate(-2.57 987.2 27.2)"/>
<rect x="20.7" y="37.1" width="9.3" height="1.0" fill="#FFFFFF" opacity="0.42" transform="rotate(-2.42 20.7 37.1)"/>
<rect x="1582.2" y="37.9" width="28.8" height="1.3" fill="#FFFFFF" opacity="0.71" transform="rotate(0.04 1582.2 37.9)"/>
<rect x="258.9" y="34.3" width="19.5" height="1.1" fill="#FFFFFF" opacity="0.48" transform="rotate(-0.69 258.9 34.3)"/>
<rect x="350.3" y="33.4" width="35.8" height="1.5" fill="#FFFFFF" opacity="0.35" transform="rotate(1.11 350.3 33.4)"/>
<rect x="38.6" y="31.7" width="35.7" height="1.6" fill="#FFFFFF" opacity="0.71" transform="rotate(1.53 38.6 31.7)"/>
<rect x="523.8" y="27.7" width="22.4" height="1.6" fill="#FFFFFF" opacity="0.44" transform="rotate(-1.01 523.8 27.7)"/>
<rect x="1436.4" y="30.2" width="27.2" height="1.5" fill="#FFFFFF" opacity="0.72" transform="rotate(-2.84 1436.4 30.2)"/>
<rect x="357.9" y="35.3" width="29.4" height="0.9" fill="#FFFFFF" opacity="0.40" transform="rotate(-1.74 357.9 35.3)"/>
<rect x="1042.8" y="36.8" width="14.9" height="1.0" fill="#FFFFFF" opacity="0.62" transform="rotate(-0.46 1042.8 36.8)"/>
<rect x="1625.6" y="38.0" width="38.0" height="1.7" fill="#FFFFFF" opacity="0.55" transform="rotate(-2.63 1625.6 38.0)"/>
<rect x="1551.6" y="30.8" width="22.8" height="1.6" fill="#FFFFFF" opacity="0.74" transform="rotate(0.34 1551.6 30.8)"/>
<rect x="1762.3" y="37.6" width="10.7" height="1.2" fill="#FFFFFF" opacity="0.71" transform="rotate(1.60 1762.3 37.6)"/>
<rect x="1860.7" y="28.2" width="25.0" height="1.9" fill="#FFFFFF" opacity="0.57" transform="rotate(1.02 1860.7 28.2)"/>
<rect x="1871.8" y="28.1" width="9.8" height="1.8" fill="#FFFFFF" opacity="0.58" transform="rotate(-1.80 1871.8 28.1)"/>
<rect x="1598.0" y="29.4" width="12.2" height="1.2" fill="#FFFFFF" opacity="0.36" transform="rotate(-0.57 1598.0 29.4)"/>
<rect x="1496.8" y="31.4" width="38.9" height="0.9" fill="#FFFFFF" opacity="0.42" transform="rotate(-2.14 1496.8 31.4)"/>
<rect x="1102.9" y="28.4" width="29.4" height="1.4" fill="#FFFFFF" opacity="0.58" transform="rotate(2.07 1102.9 28.4)"/>
<rect x="1516.5" y="37.1" width="12.9" height="1.3" fill="#FFFFFF" opacity="0.73" transform="rotate(-0.62 1516.5 37.1)"/>
<rect x="548.2" y="31.8" width="13.8" height="1.8" fill="#FFFFFF" opacity="0.60" transform="rotate(-2.43 548.2 31.8)"/>
<rect x="1851.4" y="32.2" width="16.1" height="1.5" fill="#FFFFFF" opacity="0.73" transform="rotate(-0.92 1851.4 32.2)"/>
<rect x="26.8" y="28.4" width="9.9" height="1.4" fill="#FFFFFF" opacity="0.47" transform="rotate(2.11 26.8 28.4)"/>
<rect x="395.9" y="26.2" width="22.9" height="0.9" fill="#FFFFFF" opacity="0.47" transform="rotate(-1.65 395.9 26.2)"/>
<rect x="342.1" y="33.6" width="38.0" height="1.2" fill="#FFFFFF" opacity="0.61" transform="rotate(-1.06 342.1 33.6)"/>
<rect x="1756.9" y="32.6" width="8.9" height="1.7" fill="#FFFFFF" opacity="0.43" transform="rotate(-2.72 1756.9 32.6)"/>
  </g>
</svg>
